<svg width="970" height="400" viewBox="0 0 970 400" fill="none" xmlns="http://www.w3.org/2000/svg">
<rect width="970" height="400" rx="6" fill="#D4FF7A"/>
<path d="M23.548 26.762H24.99V27.812H23.548V32.306C23.548 32.446 23.5573 32.558 23.576 32.642C23.604 32.726 23.6507 32.7913 23.716 32.838C23.7813 32.8847 23.87 32.9173 23.982 32.936C24.1033 32.9453 24.2573 32.95 24.444 32.95H24.99V34H24.08C23.772 34 23.506 33.9813 23.282 33.944C23.0673 33.8973 22.89 33.818 22.75 33.706C22.6193 33.594 22.5213 33.4353 22.456 33.23C22.3907 33.0247 22.358 32.754 22.358 32.418V27.812H21.126V26.762H22.358V24.592H23.548V26.762ZM26.312 24.004H27.502V27.826H27.53C27.6233 27.602 27.754 27.4153 27.922 27.266C28.09 27.1073 28.2767 26.9813 28.482 26.888C28.6967 26.7853 28.916 26.7107 29.14 26.664C29.3733 26.6173 29.5973 26.594 29.812 26.594C30.288 26.594 30.6847 26.6593 31.002 26.79C31.3193 26.9207 31.576 27.1027 31.772 27.336C31.968 27.5693 32.1033 27.8493 32.178 28.176C32.262 28.4933 32.304 28.848 32.304 29.24V34H31.114V29.1C31.114 28.652 30.9833 28.2973 30.722 28.036C30.4607 27.7747 30.1013 27.644 29.644 27.644C29.28 27.644 28.9627 27.7 28.692 27.812C28.4307 27.924 28.2113 28.0827 28.034 28.288C27.8567 28.4933 27.7213 28.736 27.628 29.016C27.544 29.2867 27.502 29.5853 27.502 29.912V34H26.312V24.004ZM39.1173 29.688C39.0986 29.408 39.0333 29.142 38.9213 28.89C38.8186 28.638 38.674 28.4233 38.4873 28.246C38.31 28.0593 38.0953 27.9147 37.8433 27.812C37.6006 27.7 37.33 27.644 37.0313 27.644C36.7233 27.644 36.4433 27.7 36.1913 27.812C35.9486 27.9147 35.7386 28.0593 35.5613 28.246C35.384 28.4327 35.244 28.652 35.1413 28.904C35.0386 29.1467 34.978 29.408 34.9593 29.688H39.1173ZM40.2653 31.704C40.1066 32.516 39.7566 33.1273 39.2153 33.538C38.674 33.9487 37.9926 34.154 37.1713 34.154C36.5926 34.154 36.0886 34.0607 35.6593 33.874C35.2393 33.6873 34.8846 33.426 34.5953 33.09C34.306 32.754 34.0866 32.3527 33.9373 31.886C33.7973 31.4193 33.718 30.9107 33.6993 30.36C33.6993 29.8093 33.7833 29.3053 33.9513 28.848C34.1193 28.3907 34.3526 27.994 34.6513 27.658C34.9593 27.322 35.3186 27.0607 35.7293 26.874C36.1493 26.6873 36.6066 26.594 37.1013 26.594C37.7453 26.594 38.2773 26.7293 38.6973 27C39.1266 27.2613 39.4673 27.5973 39.7193 28.008C39.9806 28.4187 40.158 28.8667 40.2513 29.352C40.354 29.8373 40.396 30.2993 40.3773 30.738H34.9593C34.95 31.0553 34.9873 31.3587 35.0713 31.648C35.1553 31.928 35.2906 32.18 35.4773 32.404C35.664 32.6187 35.902 32.7913 36.1913 32.922C36.4806 33.0527 36.8213 33.118 37.2133 33.118C37.7173 33.118 38.128 33.0013 38.4453 32.768C38.772 32.5347 38.9866 32.18 39.0893 31.704H40.2653ZM46.4733 29.002C46.4733 29.506 46.5387 30.0053 46.6693 30.5C46.8 30.9853 47.0053 31.424 47.2853 31.816C47.5653 32.208 47.9247 32.5253 48.3633 32.768C48.802 33.0013 49.3247 33.118 49.9313 33.118C50.538 33.118 51.0607 33.0013 51.4993 32.768C51.938 32.5253 52.2973 32.208 52.5773 31.816C52.8573 31.424 53.0627 30.9853 53.1933 30.5C53.324 30.0053 53.3893 29.506 53.3893 29.002C53.3893 28.498 53.324 28.0033 53.1933 27.518C53.0627 27.0233 52.8573 26.58 52.5773 26.188C52.2973 25.796 51.938 25.4833 51.4993 25.25C51.0607 25.0073 50.538 24.886 49.9313 24.886C49.3247 24.886 48.802 25.0073 48.3633 25.25C47.9247 25.4833 47.5653 25.796 47.2853 26.188C47.0053 26.58 46.8 27.0233 46.6693 27.518C46.5387 28.0033 46.4733 28.498 46.4733 29.002ZM45.1433 29.002C45.1433 28.3207 45.2413 27.6673 45.4373 27.042C45.6427 26.4073 45.946 25.8473 46.3473 25.362C46.7487 24.8767 47.248 24.4893 47.8453 24.2C48.4427 23.9107 49.138 23.766 49.9313 23.766C50.7247 23.766 51.42 23.9107 52.0173 24.2C52.6147 24.4893 53.114 24.8767 53.5153 25.362C53.9167 25.8473 54.2153 26.4073 54.4113 27.042C54.6167 27.6673 54.7193 28.3207 54.7193 29.002C54.7193 29.6833 54.6167 30.3413 54.4113 30.976C54.2153 31.6013 53.9167 32.1567 53.5153 32.642C53.114 33.1273 52.6147 33.5147 52.0173 33.804C51.42 34.084 50.7247 34.224 49.9313 34.224C49.138 34.224 48.4427 34.084 47.8453 33.804C47.248 33.5147 46.7487 33.1273 46.3473 32.642C45.946 32.1567 45.6427 31.6013 45.4373 30.976C45.2413 30.3413 45.1433 29.6833 45.1433 29.002ZM56.144 26.762H57.264V27.826H57.292C57.8334 27.0047 58.6127 26.594 59.63 26.594C60.078 26.594 60.484 26.6873 60.848 26.874C61.212 27.0607 61.4687 27.378 61.618 27.826C61.8607 27.434 62.178 27.1307 62.57 26.916C62.9714 26.7013 63.41 26.594 63.886 26.594C64.25 26.594 64.5767 26.636 64.866 26.72C65.1647 26.7947 65.4167 26.916 65.622 27.084C65.8367 27.252 66 27.4713 66.112 27.742C66.2334 28.0033 66.294 28.3207 66.294 28.694V34H65.104V29.254C65.104 29.03 65.0854 28.82 65.048 28.624C65.0107 28.428 64.9407 28.26 64.838 28.12C64.7354 27.9707 64.5907 27.854 64.404 27.77C64.2267 27.686 63.9934 27.644 63.704 27.644C63.116 27.644 62.654 27.812 62.318 28.148C61.982 28.484 61.814 28.932 61.814 29.492V34H60.624V29.254C60.624 29.0207 60.6007 28.806 60.554 28.61C60.5167 28.414 60.4467 28.246 60.344 28.106C60.2414 27.9567 60.1014 27.8447 59.924 27.77C59.756 27.686 59.5367 27.644 59.266 27.644C58.9207 27.644 58.622 27.714 58.37 27.854C58.1274 27.994 57.9267 28.162 57.768 28.358C57.6187 28.554 57.5067 28.7593 57.432 28.974C57.3667 29.1793 57.334 29.352 57.334 29.492V34H56.144V26.762ZM68.0796 26.762H69.1996V27.91H69.2276C69.7223 27.0327 70.5063 26.594 71.5796 26.594C72.0556 26.594 72.4523 26.6593 72.7696 26.79C73.0869 26.9207 73.3436 27.1027 73.5396 27.336C73.7356 27.5693 73.8709 27.8493 73.9456 28.176C74.0296 28.4933 74.0716 28.848 74.0716 29.24V34H72.8816V29.1C72.8816 28.652 72.7509 28.2973 72.4896 28.036C72.2283 27.7747 71.8689 27.644 71.4116 27.644C71.0476 27.644 70.7303 27.7 70.4596 27.812C70.1983 27.924 69.9789 28.0827 69.8016 28.288C69.6243 28.4933 69.4889 28.736 69.3956 29.016C69.3116 29.2867 69.2696 29.5853 69.2696 29.912V34H68.0796V26.762ZM77.1189 25.46H75.9289V24.004H77.1189V25.46ZM75.9289 26.762H77.1189V34H75.9289V26.762ZM79.0044 26.762H80.1944V27.742H80.2224C80.4184 27.3407 80.7264 27.0513 81.1464 26.874C81.5664 26.6873 82.0284 26.594 82.5324 26.594C83.0924 26.594 83.5777 26.6967 83.9884 26.902C84.4084 27.1073 84.7537 27.3873 85.0244 27.742C85.3044 28.0873 85.5144 28.4887 85.6544 28.946C85.7944 29.4033 85.8644 29.8887 85.8644 30.402C85.8644 30.9153 85.7944 31.4007 85.6544 31.858C85.5237 32.3153 85.3184 32.7167 85.0384 33.062C84.7677 33.398 84.4224 33.664 84.0024 33.86C83.5917 34.056 83.1111 34.154 82.5604 34.154C82.3831 34.154 82.1824 34.1353 81.9584 34.098C81.7437 34.0607 81.5291 34 81.3144 33.916C81.0997 33.832 80.8944 33.72 80.6984 33.58C80.5117 33.4307 80.3531 33.2487 80.2224 33.034H80.1944V36.758H79.0044V26.762ZM84.6044 30.318C84.6044 29.982 84.5577 29.6553 84.4644 29.338C84.3804 29.0113 84.2451 28.722 84.0584 28.47C83.8811 28.218 83.6477 28.0173 83.3584 27.868C83.0784 27.7187 82.7471 27.644 82.3644 27.644C81.9631 27.644 81.6224 27.7233 81.3424 27.882C81.0624 28.0407 80.8337 28.2507 80.6564 28.512C80.4791 28.764 80.3484 29.0533 80.2644 29.38C80.1897 29.7067 80.1524 30.038 80.1524 30.374C80.1524 30.7287 80.1944 31.074 80.2784 31.41C80.3624 31.7367 80.4931 32.026 80.6704 32.278C80.8571 32.53 81.0951 32.7353 81.3844 32.894C81.6737 33.0433 82.0237 33.118 82.4344 33.118C82.8451 33.118 83.1857 33.0387 83.4564 32.88C83.7364 32.7213 83.9604 32.5113 84.1284 32.25C84.2964 31.9887 84.4177 31.69 84.4924 31.354C84.5671 31.018 84.6044 30.6727 84.6044 30.318ZM87.2192 26.762H88.3392V28.288H88.3672C88.6566 27.7 89.0112 27.266 89.4312 26.986C89.8512 26.706 90.3832 26.5753 91.0272 26.594V27.854C90.5512 27.854 90.1452 27.9193 89.8092 28.05C89.4732 28.1807 89.2026 28.372 88.9972 28.624C88.7919 28.876 88.6426 29.184 88.5492 29.548C88.4559 29.9027 88.4092 30.3133 88.4092 30.78V34H87.2192V26.762ZM96.7033 29.688C96.6846 29.408 96.6193 29.142 96.5073 28.89C96.4046 28.638 96.2599 28.4233 96.0733 28.246C95.8959 28.0593 95.6813 27.9147 95.4293 27.812C95.1866 27.7 94.9159 27.644 94.6173 27.644C94.3093 27.644 94.0293 27.7 93.7773 27.812C93.5346 27.9147 93.3246 28.0593 93.1473 28.246C92.9699 28.4327 92.8299 28.652 92.7273 28.904C92.6246 29.1467 92.5639 29.408 92.5453 29.688H96.7033ZM97.8512 31.704C97.6926 32.516 97.3426 33.1273 96.8013 33.538C96.2599 33.9487 95.5786 34.154 94.7573 34.154C94.1786 34.154 93.6746 34.0607 93.2453 33.874C92.8253 33.6873 92.4706 33.426 92.1813 33.09C91.8919 32.754 91.6726 32.3527 91.5233 31.886C91.3833 31.4193 91.3039 30.9107 91.2853 30.36C91.2853 29.8093 91.3693 29.3053 91.5373 28.848C91.7053 28.3907 91.9386 27.994 92.2373 27.658C92.5453 27.322 92.9046 27.0607 93.3153 26.874C93.7353 26.6873 94.1926 26.594 94.6873 26.594C95.3313 26.594 95.8633 26.7293 96.2833 27C96.7126 27.2613 97.0533 27.5973 97.3053 28.008C97.5666 28.4187 97.7439 28.8667 97.8373 29.352C97.9399 29.8373 97.9819 30.2993 97.9633 30.738H92.5453C92.5359 31.0553 92.5733 31.3587 92.6573 31.648C92.7413 31.928 92.8766 32.18 93.0633 32.404C93.2499 32.6187 93.4879 32.7913 93.7773 32.922C94.0666 33.0527 94.4073 33.118 94.7993 33.118C95.3033 33.118 95.7139 33.0013 96.0313 32.768C96.3579 32.5347 96.5726 32.18 96.6753 31.704H97.8512ZM99.9248 31.718C99.9341 31.9793 99.9948 32.2033 100.107 32.39C100.219 32.5673 100.363 32.712 100.541 32.824C100.727 32.9267 100.933 33.0013 101.157 33.048C101.39 33.0947 101.628 33.118 101.871 33.118C102.057 33.118 102.253 33.104 102.459 33.076C102.664 33.048 102.851 32.9967 103.019 32.922C103.196 32.8473 103.341 32.74 103.453 32.6C103.565 32.4507 103.621 32.264 103.621 32.04C103.621 31.732 103.504 31.4987 103.271 31.34C103.037 31.1813 102.743 31.0553 102.389 30.962C102.043 30.8593 101.665 30.7707 101.255 30.696C100.844 30.612 100.461 30.5 100.107 30.36C99.7614 30.2107 99.4721 30.0053 99.2388 29.744C99.0054 29.4827 98.8888 29.1187 98.8888 28.652C98.8888 28.288 98.9681 27.9753 99.1268 27.714C99.2948 27.4527 99.5048 27.2427 99.7568 27.084C100.018 26.916 100.307 26.7947 100.625 26.72C100.951 26.636 101.273 26.594 101.591 26.594C102.001 26.594 102.379 26.6313 102.725 26.706C103.07 26.7713 103.373 26.8927 103.635 27.07C103.905 27.238 104.12 27.4713 104.279 27.77C104.437 28.0593 104.531 28.4233 104.559 28.862H103.369C103.35 28.6287 103.289 28.4373 103.187 28.288C103.084 28.1293 102.953 28.0033 102.795 27.91C102.636 27.8167 102.459 27.7513 102.263 27.714C102.076 27.6673 101.885 27.644 101.689 27.644C101.511 27.644 101.329 27.658 101.143 27.686C100.965 27.714 100.802 27.7653 100.653 27.84C100.503 27.9053 100.382 27.9987 100.289 28.12C100.195 28.232 100.149 28.3813 100.149 28.568C100.149 28.7733 100.219 28.946 100.359 29.086C100.508 29.2167 100.695 29.3287 100.919 29.422C101.143 29.506 101.395 29.5807 101.675 29.646C101.955 29.702 102.235 29.7627 102.515 29.828C102.813 29.8933 103.103 29.9727 103.383 30.066C103.672 30.1593 103.924 30.2853 104.139 30.444C104.363 30.5933 104.54 30.7847 104.671 31.018C104.811 31.2513 104.881 31.5407 104.881 31.886C104.881 32.3247 104.787 32.6887 104.601 32.978C104.423 33.2673 104.185 33.5007 103.887 33.678C103.597 33.8553 103.266 33.9767 102.893 34.042C102.529 34.1167 102.165 34.154 101.801 34.154C101.399 34.154 101.017 34.112 100.653 34.028C100.289 33.944 99.9668 33.8087 99.6868 33.622C99.4068 33.426 99.1828 33.174 99.0148 32.866C98.8468 32.5487 98.7534 32.166 98.7348 31.718H99.9248ZM111.223 29.688C111.204 29.408 111.139 29.142 111.027 28.89C110.924 28.638 110.779 28.4233 110.593 28.246C110.415 28.0593 110.201 27.9147 109.949 27.812C109.706 27.7 109.435 27.644 109.137 27.644C108.829 27.644 108.549 27.7 108.297 27.812C108.054 27.9147 107.844 28.0593 107.667 28.246C107.489 28.4327 107.349 28.652 107.247 28.904C107.144 29.1467 107.083 29.408 107.065 29.688H111.223ZM112.371 31.704C112.212 32.516 111.862 33.1273 111.321 33.538C110.779 33.9487 110.098 34.154 109.277 34.154C108.698 34.154 108.194 34.0607 107.765 33.874C107.345 33.6873 106.99 33.426 106.701 33.09C106.411 32.754 106.192 32.3527 106.043 31.886C105.903 31.4193 105.823 30.9107 105.805 30.36C105.805 29.8093 105.889 29.3053 106.057 28.848C106.225 28.3907 106.458 27.994 106.757 27.658C107.065 27.322 107.424 27.0607 107.835 26.874C108.255 26.6873 108.712 26.594 109.207 26.594C109.851 26.594 110.383 26.7293 110.803 27C111.232 27.2613 111.573 27.5973 111.825 28.008C112.086 28.4187 112.263 28.8667 112.357 29.352C112.459 29.8373 112.501 30.2993 112.483 30.738H107.065C107.055 31.0553 107.093 31.3587 107.177 31.648C107.261 31.928 107.396 32.18 107.583 32.404C107.769 32.6187 108.007 32.7913 108.297 32.922C108.586 33.0527 108.927 33.118 109.319 33.118C109.823 33.118 110.233 33.0013 110.551 32.768C110.877 32.5347 111.092 32.18 111.195 31.704H112.371ZM113.716 26.762H114.836V27.91H114.864C115.359 27.0327 116.143 26.594 117.216 26.594C117.692 26.594 118.089 26.6593 118.406 26.79C118.724 26.9207 118.98 27.1027 119.176 27.336C119.372 27.5693 119.508 27.8493 119.582 28.176C119.666 28.4933 119.708 28.848 119.708 29.24V34H118.518V29.1C118.518 28.652 118.388 28.2973 118.126 28.036C117.865 27.7747 117.506 27.644 117.048 27.644C116.684 27.644 116.367 27.7 116.096 27.812C115.835 27.924 115.616 28.0827 115.438 28.288C115.261 28.4933 115.126 28.736 115.032 29.016C114.948 29.2867 114.906 29.5853 114.906 29.912V34H113.716V26.762ZM123.148 26.762H124.59V27.812H123.148V32.306C123.148 32.446 123.157 32.558 123.176 32.642C123.204 32.726 123.25 32.7913 123.316 32.838C123.381 32.8847 123.47 32.9173 123.582 32.936C123.703 32.9453 123.857 32.95 124.044 32.95H124.59V34H123.68C123.372 34 123.106 33.9813 122.882 33.944C122.667 33.8973 122.49 33.818 122.35 33.706C122.219 33.594 122.121 33.4353 122.056 33.23C121.99 33.0247 121.958 32.754 121.958 32.418V27.812H120.726V26.762H121.958V24.592H123.148V26.762ZM31.122 50H29.736L27.454 41.6H27.426L25.116 50H23.73L21.168 40.004H22.526L24.486 48.32H24.514L26.754 40.004H28.196L30.408 48.32H30.436L32.466 40.004H33.796L31.122 50ZM34.932 46.388C34.932 46.8267 34.988 47.2187 35.1 47.564C35.2213 47.9 35.3846 48.1847 35.59 48.418C35.7953 48.642 36.0333 48.8147 36.304 48.936C36.584 49.0573 36.878 49.118 37.186 49.118C37.494 49.118 37.7833 49.0573 38.054 48.936C38.334 48.8147 38.5766 48.642 38.782 48.418C38.9873 48.1847 39.146 47.9 39.258 47.564C39.3793 47.2187 39.44 46.8267 39.44 46.388C39.44 45.9493 39.3793 45.562 39.258 45.226C39.146 44.8807 38.9873 44.5913 38.782 44.358C38.5766 44.1247 38.334 43.9473 38.054 43.826C37.7833 43.7047 37.494 43.644 37.186 43.644C36.878 43.644 36.584 43.7047 36.304 43.826C36.0333 43.9473 35.7953 44.1247 35.59 44.358C35.3846 44.5913 35.2213 44.8807 35.1 45.226C34.988 45.562 34.932 45.9493 34.932 46.388ZM33.672 46.388C33.672 45.856 33.7466 45.3613 33.896 44.904C34.0453 44.4373 34.2693 44.036 34.568 43.7C34.8666 43.3547 35.2353 43.084 35.674 42.888C36.1126 42.692 36.6166 42.594 37.186 42.594C37.7646 42.594 38.2686 42.692 38.698 42.888C39.1366 43.084 39.5053 43.3547 39.804 43.7C40.1026 44.036 40.3266 44.4373 40.476 44.904C40.6253 45.3613 40.7 45.856 40.7 46.388C40.7 46.92 40.6253 47.4147 40.476 47.872C40.3266 48.3293 40.1026 48.7307 39.804 49.076C39.5053 49.412 39.1366 49.678 38.698 49.874C38.2686 50.0607 37.7646 50.154 37.186 50.154C36.6166 50.154 36.1126 50.0607 35.674 49.874C35.2353 49.678 34.8666 49.412 34.568 49.076C34.2693 48.7307 34.0453 48.3293 33.896 47.872C33.7466 47.4147 33.672 46.92 33.672 46.388ZM42.061 42.762H43.181V44.288H43.209C43.4984 43.7 43.853 43.266 44.273 42.986C44.693 42.706 45.225 42.5753 45.869 42.594V43.854C45.393 43.854 44.987 43.9193 44.651 44.05C44.315 44.1807 44.0444 44.372 43.839 44.624C43.6337 44.876 43.4844 45.184 43.391 45.548C43.2977 45.9027 43.251 46.3133 43.251 46.78V50H42.061V42.762ZM46.8351 40.004H48.0251V50H46.8351V40.004ZM50.7367 46.444C50.7367 46.78 50.7787 47.1113 50.8627 47.438C50.956 47.7553 51.0913 48.04 51.2687 48.292C51.4553 48.544 51.6887 48.7447 51.9687 48.894C52.258 49.0433 52.594 49.118 52.9767 49.118C53.378 49.118 53.7187 49.0387 53.9987 48.88C54.2787 48.7213 54.5073 48.516 54.6847 48.264C54.862 48.0027 54.988 47.7087 55.0627 47.382C55.1467 47.0553 55.1887 46.724 55.1887 46.388C55.1887 46.0333 55.1467 45.6927 55.0627 45.366C54.9787 45.03 54.8433 44.736 54.6567 44.484C54.4793 44.232 54.246 44.0313 53.9567 43.882C53.6673 43.7233 53.3173 43.644 52.9067 43.644C52.5053 43.644 52.1647 43.7233 51.8847 43.882C51.6047 44.0407 51.3807 44.2507 51.2127 44.512C51.0447 44.7733 50.9233 45.072 50.8487 45.408C50.774 45.744 50.7367 46.0893 50.7367 46.444ZM56.3367 50H55.1467V49.02H55.1187C54.9227 49.4213 54.6147 49.7107 54.1947 49.888C53.7747 50.0653 53.3127 50.154 52.8087 50.154C52.2487 50.154 51.7587 50.0513 51.3387 49.846C50.928 49.6407 50.5827 49.3653 50.3027 49.02C50.032 48.6747 49.8267 48.2733 49.6867 47.816C49.5467 47.3587 49.4767 46.8733 49.4767 46.36C49.4767 45.8467 49.542 45.3613 49.6727 44.904C49.8127 44.4467 50.018 44.05 50.2887 43.714C50.5687 43.3687 50.914 43.098 51.3247 42.902C51.7447 42.6967 52.23 42.594 52.7807 42.594C52.9673 42.594 53.168 42.6127 53.3827 42.65C53.5973 42.6873 53.812 42.7527 54.0267 42.846C54.2413 42.93 54.442 43.0467 54.6287 43.196C54.8247 43.336 54.988 43.5133 55.1187 43.728H55.1467V40.004H56.3367V50ZM63.03 45.002C63.03 45.506 63.0953 46.0053 63.226 46.5C63.3566 46.9853 63.562 47.424 63.842 47.816C64.122 48.208 64.4813 48.5253 64.92 48.768C65.3586 49.0013 65.8813 49.118 66.488 49.118C67.0946 49.118 67.6173 49.0013 68.056 48.768C68.4946 48.5253 68.854 48.208 69.134 47.816C69.414 47.424 69.6193 46.9853 69.75 46.5C69.8806 46.0053 69.946 45.506 69.946 45.002C69.946 44.498 69.8806 44.0033 69.75 43.518C69.6193 43.0233 69.414 42.58 69.134 42.188C68.854 41.796 68.4946 41.4833 68.056 41.25C67.6173 41.0073 67.0946 40.886 66.488 40.886C65.8813 40.886 65.3586 41.0073 64.92 41.25C64.4813 41.4833 64.122 41.796 63.842 42.188C63.562 42.58 63.3566 43.0233 63.226 43.518C63.0953 44.0033 63.03 44.498 63.03 45.002ZM61.7 45.002C61.7 44.3207 61.798 43.6673 61.994 43.042C62.1993 42.4073 62.5026 41.8473 62.904 41.362C63.3053 40.8767 63.8046 40.4893 64.402 40.2C64.9993 39.9107 65.6946 39.766 66.488 39.766C67.2813 39.766 67.9766 39.9107 68.574 40.2C69.1713 40.4893 69.6706 40.8767 70.072 41.362C70.4733 41.8473 70.772 42.4073 70.968 43.042C71.1733 43.6673 71.276 44.3207 71.276 45.002C71.276 45.6833 71.1733 46.3413 70.968 46.976C70.772 47.6013 70.4733 48.1567 70.072 48.642C69.6706 49.1273 69.1713 49.5147 68.574 49.804C67.9766 50.084 67.2813 50.224 66.488 50.224C65.6946 50.224 64.9993 50.084 64.402 49.804C63.8046 49.5147 63.3053 49.1273 62.904 48.642C62.5026 48.1567 62.1993 47.6013 61.994 46.976C61.798 46.3413 61.7 45.6833 61.7 45.002ZM73.1907 43.812H71.9727V42.762H73.1907V41.684C73.1907 41.096 73.3587 40.6527 73.6947 40.354C74.04 40.046 74.5394 39.892 75.1927 39.892C75.3047 39.892 75.4307 39.9013 75.5707 39.92C75.72 39.9387 75.8507 39.9667 75.9627 40.004V41.04C75.86 41.0027 75.748 40.9793 75.6267 40.97C75.5054 40.9513 75.3934 40.942 75.2907 40.942C75.0014 40.942 74.7774 40.998 74.6187 41.11C74.46 41.222 74.3807 41.4367 74.3807 41.754V42.762H75.7807V43.812H74.3807V50H73.1907V43.812ZM89.9658 50H88.5798L86.2978 41.6H86.2698L83.9597 50H82.5738L80.0118 40.004H81.3698L83.3298 48.32H83.3578L85.5978 40.004H87.0397L89.2518 48.32H89.2798L91.3098 40.004H92.6398L89.9658 50ZM94.9607 41.46H93.7707V40.004H94.9607V41.46ZM93.7707 42.762H94.9607V50H93.7707V42.762ZM96.2162 49.09L100.584 43.812H96.4962V42.762H102.124V43.574L97.7002 48.95H102.32V50H96.2162V49.09ZM103.601 40.004H104.791V45.926L108.095 42.762H109.691L106.821 45.394L109.901 50H108.389L105.911 46.22L104.791 47.256V50H103.601V40.004ZM112.051 41.46H110.861V40.004H112.051V41.46ZM110.861 42.762H112.051V50H110.861V42.762ZM114.762 46.444C114.762 46.78 114.804 47.1113 114.888 47.438C114.981 47.7553 115.117 48.04 115.294 48.292C115.481 48.544 115.714 48.7447 115.994 48.894C116.283 49.0433 116.619 49.118 117.002 49.118C117.403 49.118 117.744 49.0387 118.024 48.88C118.304 48.7213 118.533 48.516 118.71 48.264C118.887 48.0027 119.013 47.7087 119.088 47.382C119.172 47.0553 119.214 46.724 119.214 46.388C119.214 46.0333 119.172 45.6927 119.088 45.366C119.004 45.03 118.869 44.736 118.682 44.484C118.505 44.232 118.271 44.0313 117.982 43.882C117.693 43.7233 117.343 43.644 116.932 43.644C116.531 43.644 116.19 43.7233 115.91 43.882C115.63 44.0407 115.406 44.2507 115.238 44.512C115.07 44.7733 114.949 45.072 114.874 45.408C114.799 45.744 114.762 46.0893 114.762 46.444ZM120.362 50H119.172V49.02H119.144C118.948 49.4213 118.64 49.7107 118.22 49.888C117.8 50.0653 117.338 50.154 116.834 50.154C116.274 50.154 115.784 50.0513 115.364 49.846C114.953 49.6407 114.608 49.3653 114.328 49.02C114.057 48.6747 113.852 48.2733 113.712 47.816C113.572 47.3587 113.502 46.8733 113.502 46.36C113.502 45.8467 113.567 45.3613 113.698 44.904C113.838 44.4467 114.043 44.05 114.314 43.714C114.594 43.3687 114.939 43.098 115.35 42.902C115.77 42.6967 116.255 42.594 116.806 42.594C116.993 42.594 117.193 42.6127 117.408 42.65C117.623 42.6873 117.837 42.7527 118.052 42.846C118.267 42.93 118.467 43.0467 118.654 43.196C118.85 43.336 119.013 43.5133 119.144 43.728H119.172V40.004H120.362V50ZM122.921 47.718C122.93 47.9793 122.991 48.2033 123.103 48.39C123.215 48.5673 123.36 48.712 123.537 48.824C123.724 48.9267 123.929 49.0013 124.153 49.048C124.386 49.0947 124.624 49.118 124.867 49.118C125.054 49.118 125.25 49.104 125.455 49.076C125.66 49.048 125.847 48.9967 126.015 48.922C126.192 48.8473 126.337 48.74 126.449 48.6C126.561 48.4507 126.617 48.264 126.617 48.04C126.617 47.732 126.5 47.4987 126.267 47.34C126.034 47.1813 125.74 47.0553 125.385 46.962C125.04 46.8593 124.662 46.7707 124.251 46.696C123.84 46.612 123.458 46.5 123.103 46.36C122.758 46.2107 122.468 46.0053 122.235 45.744C122.002 45.4827 121.885 45.1187 121.885 44.652C121.885 44.288 121.964 43.9753 122.123 43.714C122.291 43.4527 122.501 43.2427 122.753 43.084C123.014 42.916 123.304 42.7947 123.621 42.72C123.948 42.636 124.27 42.594 124.587 42.594C124.998 42.594 125.376 42.6313 125.721 42.706C126.066 42.7713 126.37 42.8927 126.631 43.07C126.902 43.238 127.116 43.4713 127.275 43.77C127.434 44.0593 127.527 44.4233 127.555 44.862H126.365C126.346 44.6287 126.286 44.4373 126.183 44.288C126.08 44.1293 125.95 44.0033 125.791 43.91C125.632 43.8167 125.455 43.7513 125.259 43.714C125.072 43.6673 124.881 43.644 124.685 43.644C124.508 43.644 124.326 43.658 124.139 43.686C123.962 43.714 123.798 43.7653 123.649 43.84C123.5 43.9053 123.378 43.9987 123.285 44.12C123.192 44.232 123.145 44.3813 123.145 44.568C123.145 44.7733 123.215 44.946 123.355 45.086C123.504 45.2167 123.691 45.3287 123.915 45.422C124.139 45.506 124.391 45.5807 124.671 45.646C124.951 45.702 125.231 45.7627 125.511 45.828C125.81 45.8933 126.099 45.9727 126.379 46.066C126.668 46.1593 126.92 46.2853 127.135 46.444C127.359 46.5933 127.536 46.7847 127.667 47.018C127.807 47.2513 127.877 47.5407 127.877 47.886C127.877 48.3247 127.784 48.6887 127.597 48.978C127.42 49.2673 127.182 49.5007 126.883 49.678C126.594 49.8553 126.262 49.9767 125.889 50.042C125.525 50.1167 125.161 50.154 124.797 50.154C124.396 50.154 124.013 50.112 123.649 50.028C123.285 49.944 122.963 49.8087 122.683 49.622C122.403 49.426 122.179 49.174 122.011 48.866C121.843 48.5487 121.75 48.166 121.731 47.718H122.921Z" fill="#1A1A1A"/>
<g clip-path="url(#clip0_1745_12188)">
<path d="M890.691 34.4871C889.147 35.997 887.247 36.7435 885.007 36.7435C882.751 36.7435 880.851 35.997 879.324 34.4871C877.763 32.9773 877 31.1111 877 28.8717C877 26.6324 877.763 24.7662 879.307 23.2563C880.851 21.7465 882.751 21 885.007 21C887.264 21 889.164 21.7465 890.691 23.2563C892.235 24.7662 892.998 26.6324 892.998 28.8717C892.998 31.1111 892.235 32.9773 890.691 34.4871ZM889.537 28.8717C889.537 27.5145 889.096 26.3609 888.231 25.3939C887.366 24.4269 886.28 23.9519 885.007 23.9519C883.735 23.9519 882.666 24.4269 881.784 25.3939C880.919 26.3609 880.478 27.5145 880.478 28.8717C880.478 30.2289 880.919 31.3826 881.784 32.3326C882.649 33.2826 883.735 33.7577 885.007 33.7577C886.28 33.7577 887.349 33.2826 888.231 32.3326C889.096 31.3995 889.537 30.2459 889.537 28.8717Z" fill="#1A1A1A"/>
<path d="M898.207 30.1102L900.904 21.3393H904.45L907.13 30.1102L910.167 21.3393H913.848L908.538 36.5738H906.011L902.668 25.9877L899.36 36.5738H896.832L891.522 21.3563H895.204L898.207 30.1102Z" fill="#1A1A1A"/>
<path d="M926.062 34.4871C924.519 35.997 922.619 36.7435 920.379 36.7435C918.123 36.7435 916.223 35.997 914.696 34.4871C913.152 32.9773 912.389 31.1111 912.389 28.8717C912.389 26.6324 913.152 24.7662 914.696 23.2563C916.223 21.7465 918.123 21 920.379 21C922.636 21 924.536 21.7465 926.062 23.2563C927.606 24.7662 928.37 26.6324 928.37 28.8717C928.37 31.1111 927.606 32.9773 926.062 34.4871ZM924.909 28.8717C924.909 27.5145 924.468 26.3609 923.603 25.3939C922.737 24.4269 921.652 23.9519 920.379 23.9519C919.107 23.9519 918.038 24.4269 917.156 25.3939C916.291 26.3609 915.85 27.5145 915.85 28.8717C915.85 30.2289 916.291 31.3826 917.156 32.3326C918.021 33.2826 919.107 33.7577 920.379 33.7577C921.652 33.7577 922.72 33.2826 923.603 32.3326C924.468 31.3995 924.909 30.2459 924.909 28.8717Z" fill="#1A1A1A"/>
<path d="M933.578 30.1102L936.275 21.3393H939.821L942.501 30.1102L945.538 21.3393H949.219L943.892 36.5738H941.365L938.023 25.9877L934.714 36.5738H932.187L926.894 21.3563H930.575L933.578 30.1102Z" fill="#1A1A1A"/>
</g>
<path d="M22.764 375.388C22.764 375.827 22.82 376.219 22.932 376.564C23.0533 376.9 23.2167 377.185 23.422 377.418C23.6273 377.642 23.8653 377.815 24.136 377.936C24.416 378.057 24.71 378.118 25.018 378.118C25.326 378.118 25.6153 378.057 25.886 377.936C26.166 377.815 26.4087 377.642 26.614 377.418C26.8193 377.185 26.978 376.9 27.09 376.564C27.2113 376.219 27.272 375.827 27.272 375.388C27.272 374.949 27.2113 374.562 27.09 374.226C26.978 373.881 26.8193 373.591 26.614 373.358C26.4087 373.125 26.166 372.947 25.886 372.826C25.6153 372.705 25.326 372.644 25.018 372.644C24.71 372.644 24.416 372.705 24.136 372.826C23.8653 372.947 23.6273 373.125 23.422 373.358C23.2167 373.591 23.0533 373.881 22.932 374.226C22.82 374.562 22.764 374.949 22.764 375.388ZM21.504 375.388C21.504 374.856 21.5787 374.361 21.728 373.904C21.8773 373.437 22.1013 373.036 22.4 372.7C22.6987 372.355 23.0673 372.084 23.506 371.888C23.9447 371.692 24.4487 371.594 25.018 371.594C25.5967 371.594 26.1007 371.692 26.53 371.888C26.9687 372.084 27.3373 372.355 27.636 372.7C27.9347 373.036 28.1587 373.437 28.308 373.904C28.4573 374.361 28.532 374.856 28.532 375.388C28.532 375.92 28.4573 376.415 28.308 376.872C28.1587 377.329 27.9347 377.731 27.636 378.076C27.3373 378.412 26.9687 378.678 26.53 378.874C26.1007 379.061 25.5967 379.154 25.018 379.154C24.4487 379.154 23.9447 379.061 23.506 378.874C23.0673 378.678 22.6987 378.412 22.4 378.076C22.1013 377.731 21.8773 377.329 21.728 376.872C21.5787 376.415 21.504 375.92 21.504 375.388ZM37.1031 379H35.8431L34.3731 373.246H34.3451L32.8891 379H31.6011L29.2771 371.762H30.5931L32.2311 377.684H32.2591L33.7151 371.762H35.0171L36.5291 377.684H36.5571L38.1811 371.762H39.4131L37.1031 379ZM41.4124 375.388C41.4124 375.827 41.4684 376.219 41.5804 376.564C41.7018 376.9 41.8651 377.185 42.0704 377.418C42.2758 377.642 42.5138 377.815 42.7844 377.936C43.0644 378.057 43.3584 378.118 43.6664 378.118C43.9744 378.118 44.2638 378.057 44.5344 377.936C44.8144 377.815 45.0571 377.642 45.2624 377.418C45.4678 377.185 45.6264 376.9 45.7384 376.564C45.8598 376.219 45.9204 375.827 45.9204 375.388C45.9204 374.949 45.8598 374.562 45.7384 374.226C45.6264 373.881 45.4678 373.591 45.2624 373.358C45.0571 373.125 44.8144 372.947 44.5344 372.826C44.2638 372.705 43.9744 372.644 43.6664 372.644C43.3584 372.644 43.0644 372.705 42.7844 372.826C42.5138 372.947 42.2758 373.125 42.0704 373.358C41.8651 373.591 41.7018 373.881 41.5804 374.226C41.4684 374.562 41.4124 374.949 41.4124 375.388ZM40.1524 375.388C40.1524 374.856 40.2271 374.361 40.3764 373.904C40.5258 373.437 40.7498 373.036 41.0484 372.7C41.3471 372.355 41.7158 372.084 42.1544 371.888C42.5931 371.692 43.0971 371.594 43.6664 371.594C44.2451 371.594 44.7491 371.692 45.1784 371.888C45.6171 372.084 45.9858 372.355 46.2844 372.7C46.5831 373.036 46.8071 373.437 46.9564 373.904C47.1058 374.361 47.1804 374.856 47.1804 375.388C47.1804 375.92 47.1058 376.415 46.9564 376.872C46.8071 377.329 46.5831 377.731 46.2844 378.076C45.9858 378.412 45.6171 378.678 45.1784 378.874C44.7491 379.061 44.2451 379.154 43.6664 379.154C43.0971 379.154 42.5931 379.061 42.1544 378.874C41.7158 378.678 41.3471 378.412 41.0484 378.076C40.7498 377.731 40.5258 377.329 40.3764 376.872C40.2271 376.415 40.1524 375.92 40.1524 375.388ZM55.7515 379H54.4915L53.0215 373.246H52.9935L51.5375 379H50.2495L47.9255 371.762H49.2415L50.8795 377.684H50.9075L52.3635 371.762H53.6655L55.1775 377.684H55.2055L56.8295 371.762H58.0615L55.7515 379ZM58.6933 377.446H60.2473V379H58.6933V377.446ZM63.5837 370.46H62.3937V369.004H63.5837V370.46ZM62.3937 371.762H63.5837V379H62.3937V371.762ZM66.2953 375.388C66.2953 375.827 66.3513 376.219 66.4633 376.564C66.5846 376.9 66.7479 377.185 66.9533 377.418C67.1586 377.642 67.3966 377.815 67.6673 377.936C67.9473 378.057 68.2413 378.118 68.5493 378.118C68.8573 378.118 69.1466 378.057 69.4173 377.936C69.6973 377.815 69.9399 377.642 70.1453 377.418C70.3506 377.185 70.5093 376.9 70.6213 376.564C70.7426 376.219 70.8033 375.827 70.8033 375.388C70.8033 374.949 70.7426 374.562 70.6213 374.226C70.5093 373.881 70.3506 373.591 70.1453 373.358C69.9399 373.125 69.6973 372.947 69.4173 372.826C69.1466 372.705 68.8573 372.644 68.5493 372.644C68.2413 372.644 67.9473 372.705 67.6673 372.826C67.3966 372.947 67.1586 373.125 66.9533 373.358C66.7479 373.591 66.5846 373.881 66.4633 374.226C66.3513 374.562 66.2953 374.949 66.2953 375.388ZM65.0353 375.388C65.0353 374.856 65.1099 374.361 65.2593 373.904C65.4086 373.437 65.6326 373.036 65.9313 372.7C66.2299 372.355 66.5986 372.084 67.0373 371.888C67.4759 371.692 67.9799 371.594 68.5493 371.594C69.1279 371.594 69.6319 371.692 70.0613 371.888C70.4999 372.084 70.8686 372.355 71.1673 372.7C71.4659 373.036 71.6899 373.437 71.8393 373.904C71.9886 374.361 72.0633 374.856 72.0633 375.388C72.0633 375.92 71.9886 376.415 71.8393 376.872C71.6899 377.329 71.4659 377.731 71.1673 378.076C70.8686 378.412 70.4999 378.678 70.0613 378.874C69.6319 379.061 69.1279 379.154 68.5493 379.154C67.9799 379.154 67.4759 379.061 67.0373 378.874C66.5986 378.678 66.2299 378.412 65.9313 378.076C65.6326 377.731 65.4086 377.329 65.2593 376.872C65.1099 376.415 65.0353 375.92 65.0353 375.388Z" fill="#1A1A1A"/>
<path d="M851.891 373.302H854.551C855.307 373.302 855.848 373.171 856.175 372.91C856.511 372.639 856.679 372.238 856.679 371.706C856.679 371.351 856.623 371.071 856.511 370.866C856.399 370.661 856.245 370.502 856.049 370.39C855.853 370.278 855.624 370.208 855.363 370.18C855.111 370.143 854.84 370.124 854.551 370.124H851.891V373.302ZM850.561 369.004H854.187C854.401 369.004 854.63 369.009 854.873 369.018C855.125 369.018 855.372 369.032 855.615 369.06C855.857 369.079 856.081 369.111 856.287 369.158C856.501 369.205 856.683 369.275 856.833 369.368C857.159 369.564 857.435 369.835 857.659 370.18C857.892 370.525 858.009 370.95 858.009 371.454C858.009 371.986 857.878 372.448 857.617 372.84C857.365 373.223 857.001 373.507 856.525 373.694V373.722C857.141 373.853 857.612 374.133 857.939 374.562C858.265 374.991 858.429 375.514 858.429 376.13C858.429 376.494 858.363 376.849 858.233 377.194C858.102 377.539 857.906 377.847 857.645 378.118C857.393 378.379 857.075 378.594 856.693 378.762C856.319 378.921 855.885 379 855.391 379H850.561V369.004ZM851.891 377.88H855.223C855.811 377.88 856.268 377.721 856.595 377.404C856.931 377.087 857.099 376.648 857.099 376.088C857.099 375.761 857.038 375.491 856.917 375.276C856.795 375.061 856.632 374.893 856.427 374.772C856.231 374.641 856.002 374.553 855.741 374.506C855.479 374.45 855.209 374.422 854.929 374.422H851.891V377.88ZM865.941 379H864.821V377.852H864.793C864.541 378.3 864.219 378.631 863.827 378.846C863.435 379.051 862.973 379.154 862.441 379.154C861.965 379.154 861.568 379.093 861.251 378.972C860.933 378.841 860.677 378.659 860.481 378.426C860.285 378.193 860.145 377.917 860.061 377.6C859.986 377.273 859.949 376.914 859.949 376.522V371.762H861.139V376.662C861.139 377.11 861.269 377.465 861.531 377.726C861.792 377.987 862.151 378.118 862.609 378.118C862.973 378.118 863.285 378.062 863.547 377.95C863.817 377.838 864.041 377.679 864.219 377.474C864.396 377.269 864.527 377.031 864.611 376.76C864.704 376.48 864.751 376.177 864.751 375.85V371.762H865.941V379ZM868.988 370.46H867.798V369.004H868.988V370.46ZM867.798 371.762H868.988V379H867.798V371.762ZM870.902 369.004H872.092V379H870.902V369.004ZM875.587 371.762H877.029V372.812H875.587V377.306C875.587 377.446 875.596 377.558 875.615 377.642C875.643 377.726 875.69 377.791 875.755 377.838C875.82 377.885 875.909 377.917 876.021 377.936C876.142 377.945 876.296 377.95 876.483 377.95H877.029V379H876.119C875.811 379 875.545 378.981 875.321 378.944C875.106 378.897 874.929 378.818 874.789 378.706C874.658 378.594 874.56 378.435 874.495 378.23C874.43 378.025 874.397 377.754 874.397 377.418V372.812H873.165V371.762H874.397V369.592H875.587V371.762ZM882.29 369.004H883.48V372.742H883.508C883.704 372.341 884.012 372.051 884.432 371.874C884.852 371.687 885.314 371.594 885.818 371.594C886.378 371.594 886.863 371.697 887.274 371.902C887.694 372.107 888.039 372.387 888.31 372.742C888.59 373.087 888.8 373.489 888.94 373.946C889.08 374.403 889.15 374.889 889.15 375.402C889.15 375.915 889.08 376.401 888.94 376.858C888.809 377.315 888.604 377.717 888.324 378.062C888.053 378.398 887.708 378.664 887.288 378.86C886.877 379.056 886.396 379.154 885.846 379.154C885.668 379.154 885.468 379.135 885.244 379.098C885.029 379.061 884.814 379 884.6 378.916C884.385 378.832 884.18 378.72 883.984 378.58C883.797 378.431 883.638 378.249 883.508 378.034H883.48V379H882.29V369.004ZM887.89 375.318C887.89 374.982 887.843 374.655 887.75 374.338C887.666 374.011 887.53 373.722 887.344 373.47C887.166 373.218 886.933 373.017 886.644 372.868C886.364 372.719 886.032 372.644 885.65 372.644C885.248 372.644 884.908 372.723 884.628 372.882C884.348 373.041 884.119 373.251 883.942 373.512C883.764 373.764 883.634 374.053 883.55 374.38C883.475 374.707 883.438 375.038 883.438 375.374C883.438 375.729 883.48 376.074 883.564 376.41C883.648 376.737 883.778 377.026 883.956 377.278C884.142 377.53 884.38 377.735 884.67 377.894C884.959 378.043 885.309 378.118 885.72 378.118C886.13 378.118 886.471 378.039 886.742 377.88C887.022 377.721 887.246 377.511 887.414 377.25C887.582 376.989 887.703 376.69 887.778 376.354C887.852 376.018 887.89 375.673 887.89 375.318ZM893.388 379.966C893.248 380.321 893.108 380.619 892.968 380.862C892.838 381.105 892.688 381.301 892.52 381.45C892.362 381.609 892.18 381.721 891.974 381.786C891.778 381.861 891.55 381.898 891.288 381.898C891.148 381.898 891.008 381.889 890.868 381.87C890.728 381.851 890.593 381.819 890.462 381.772V380.68C890.565 380.727 890.682 380.764 890.812 380.792C890.952 380.829 891.069 380.848 891.162 380.848C891.405 380.848 891.606 380.787 891.764 380.666C891.932 380.554 892.058 380.391 892.142 380.176L892.632 378.958L889.762 371.762H891.106L893.22 377.684H893.248L895.278 371.762H896.538L893.388 379.966ZM910.669 379H909.283L907.001 370.6H906.973L904.663 379H903.277L900.715 369.004H902.073L904.033 377.32H904.061L906.301 369.004H907.743L909.955 377.32H909.983L912.013 369.004H913.343L910.669 379ZM915.664 370.46H914.474V369.004H915.664V370.46ZM914.474 371.762H915.664V379H914.474V371.762ZM916.919 378.09L921.287 372.812H917.199V371.762H922.827V372.574L918.403 377.95H923.023V379H916.919V378.09ZM924.304 369.004H925.494V374.926L928.798 371.762H930.394L927.524 374.394L930.604 379H929.092L926.614 375.22L925.494 376.256V379H924.304V369.004ZM932.754 370.46H931.564V369.004H932.754V370.46ZM931.564 371.762H932.754V379H931.564V371.762ZM935.465 375.444C935.465 375.78 935.507 376.111 935.591 376.438C935.685 376.755 935.82 377.04 935.997 377.292C936.184 377.544 936.417 377.745 936.697 377.894C936.987 378.043 937.323 378.118 937.705 378.118C938.107 378.118 938.447 378.039 938.727 377.88C939.007 377.721 939.236 377.516 939.413 377.264C939.591 377.003 939.717 376.709 939.791 376.382C939.875 376.055 939.917 375.724 939.917 375.388C939.917 375.033 939.875 374.693 939.791 374.366C939.707 374.03 939.572 373.736 939.385 373.484C939.208 373.232 938.975 373.031 938.685 372.882C938.396 372.723 938.046 372.644 937.635 372.644C937.234 372.644 936.893 372.723 936.613 372.882C936.333 373.041 936.109 373.251 935.941 373.512C935.773 373.773 935.652 374.072 935.577 374.408C935.503 374.744 935.465 375.089 935.465 375.444ZM941.065 379H939.875V378.02H939.847C939.651 378.421 939.343 378.711 938.923 378.888C938.503 379.065 938.041 379.154 937.537 379.154C936.977 379.154 936.487 379.051 936.067 378.846C935.657 378.641 935.311 378.365 935.031 378.02C934.761 377.675 934.555 377.273 934.415 376.816C934.275 376.359 934.205 375.873 934.205 375.36C934.205 374.847 934.271 374.361 934.401 373.904C934.541 373.447 934.747 373.05 935.017 372.714C935.297 372.369 935.643 372.098 936.053 371.902C936.473 371.697 936.959 371.594 937.509 371.594C937.696 371.594 937.897 371.613 938.111 371.65C938.326 371.687 938.541 371.753 938.755 371.846C938.97 371.93 939.171 372.047 939.357 372.196C939.553 372.336 939.717 372.513 939.847 372.728H939.875V369.004H941.065V379ZM943.624 376.718C943.633 376.979 943.694 377.203 943.806 377.39C943.918 377.567 944.063 377.712 944.24 377.824C944.427 377.927 944.632 378.001 944.856 378.048C945.089 378.095 945.327 378.118 945.57 378.118C945.757 378.118 945.953 378.104 946.158 378.076C946.363 378.048 946.55 377.997 946.718 377.922C946.895 377.847 947.04 377.74 947.152 377.6C947.264 377.451 947.32 377.264 947.32 377.04C947.32 376.732 947.203 376.499 946.97 376.34C946.737 376.181 946.443 376.055 946.088 375.962C945.743 375.859 945.365 375.771 944.954 375.696C944.543 375.612 944.161 375.5 943.806 375.36C943.461 375.211 943.171 375.005 942.938 374.744C942.705 374.483 942.588 374.119 942.588 373.652C942.588 373.288 942.667 372.975 942.826 372.714C942.994 372.453 943.204 372.243 943.456 372.084C943.717 371.916 944.007 371.795 944.324 371.72C944.651 371.636 944.973 371.594 945.29 371.594C945.701 371.594 946.079 371.631 946.424 371.706C946.769 371.771 947.073 371.893 947.334 372.07C947.605 372.238 947.819 372.471 947.978 372.77C948.137 373.059 948.23 373.423 948.258 373.862H947.068C947.049 373.629 946.989 373.437 946.886 373.288C946.783 373.129 946.653 373.003 946.494 372.91C946.335 372.817 946.158 372.751 945.962 372.714C945.775 372.667 945.584 372.644 945.388 372.644C945.211 372.644 945.029 372.658 944.842 372.686C944.665 372.714 944.501 372.765 944.352 372.84C944.203 372.905 944.081 372.999 943.988 373.12C943.895 373.232 943.848 373.381 943.848 373.568C943.848 373.773 943.918 373.946 944.058 374.086C944.207 374.217 944.394 374.329 944.618 374.422C944.842 374.506 945.094 374.581 945.374 374.646C945.654 374.702 945.934 374.763 946.214 374.828C946.513 374.893 946.802 374.973 947.082 375.066C947.371 375.159 947.623 375.285 947.838 375.444C948.062 375.593 948.239 375.785 948.37 376.018C948.51 376.251 948.58 376.541 948.58 376.886C948.58 377.325 948.487 377.689 948.3 377.978C948.123 378.267 947.885 378.501 947.586 378.678C947.297 378.855 946.965 378.977 946.592 379.042C946.228 379.117 945.864 379.154 945.5 379.154C945.099 379.154 944.716 379.112 944.352 379.028C943.988 378.944 943.666 378.809 943.386 378.622C943.106 378.426 942.882 378.174 942.714 377.866C942.546 377.549 942.453 377.166 942.434 376.718H943.624Z" fill="#1A1A1A"/>
<path d="M941.474 343.5C942.396 343.498 943.31 343.677 944.163 344.029C945.015 344.381 945.79 344.898 946.443 345.55C947.096 346.203 947.614 346.978 947.967 347.831C948.32 348.684 948.501 349.598 948.5 350.522C948.505 354.353 945.367 357.486 941.51 357.5C937.665 357.515 934.491 354.345 934.5 350.499C934.509 346.653 937.645 343.506 941.474 343.5ZM939.537 352.456L943.468 352.456L943.468 348.546L939.537 348.546L939.537 352.456ZM934.846 351.265C935.16 354.571 938.022 356.98 940.682 357.139C940.51 356.836 940.315 356.542 940.169 356.226C939.705 355.216 939.5 354.135 939.371 353.04C939.344 352.803 939.293 352.681 939.014 352.646C937.547 352.444 936.091 352.201 934.846 351.262L934.846 351.265ZM948.161 349.733C947.937 346.767 944.607 343.463 942.326 343.898C942.449 344.097 942.583 344.292 942.693 344.496C943.263 345.568 943.479 346.738 943.629 347.926C943.662 348.19 943.717 348.323 944.034 348.367C945.475 348.557 946.91 348.797 948.161 349.73L948.161 349.733ZM940.731 343.842C937.371 344.149 934.984 347.144 934.879 349.711C936.191 348.735 937.742 348.541 939.307 348.305C939.541 346.756 939.731 345.19 940.731 343.839L940.731 343.842ZM942.28 357.154C945.437 356.883 947.964 354.097 948.14 351.285C946.822 352.267 945.257 352.466 943.694 352.702C943.463 354.252 943.271 355.804 942.28 357.15L942.28 357.154ZM939.597 352.761C939.658 353.16 939.705 353.559 939.782 353.953C939.966 354.906 940.175 355.857 940.731 356.679C941.219 357.402 941.766 357.424 942.247 356.706C943.043 355.517 943.213 354.137 943.408 352.761L939.597 352.761ZM943.407 348.238C943.346 347.833 943.305 347.433 943.224 347.042C943.023 346.067 942.826 345.085 942.221 344.258C941.749 343.609 941.229 343.6 940.779 344.263C939.967 345.459 939.797 346.848 939.599 348.238L943.407 348.238ZM943.754 352.404C944.082 352.359 944.393 352.325 944.698 352.271C945.715 352.086 946.733 351.884 947.619 351.311C948.426 350.789 948.421 350.179 947.597 349.68C946.418 348.972 945.093 348.768 943.752 348.603L943.754 352.404ZM939.248 348.598C938.913 348.646 938.58 348.682 938.25 348.742C937.245 348.924 936.245 349.136 935.371 349.699C934.595 350.203 934.564 350.826 935.362 351.273C936.024 351.643 936.77 351.884 937.502 352.103C938.066 352.272 938.667 352.318 939.248 352.418L939.248 348.598Z" fill="#1A1A1A" stroke="#1A1A1A" stroke-width="0.4375"/>
<g clip-path="url(#clip1_1745_12188)">
<path fill-rule="evenodd" clip-rule="evenodd" d="M504.443 162.895C504.458 162.948 504.465 163.002 504.465 163.056V171.496C504.465 171.604 504.436 171.711 504.382 171.805C504.328 171.898 504.25 171.976 504.156 172.03L497.072 176.108V184.192C497.072 184.412 496.955 184.615 496.764 184.726L481.977 193.238C481.943 193.258 481.906 193.27 481.87 193.283C481.856 193.288 481.843 193.296 481.828 193.3C481.725 193.327 481.616 193.327 481.513 193.3C481.496 193.295 481.48 193.286 481.464 193.28C481.43 193.268 481.395 193.257 481.363 193.238L466.579 184.726C466.485 184.672 466.407 184.594 466.353 184.501C466.298 184.407 466.27 184.301 466.27 184.192V158.872C466.27 158.817 466.277 158.763 466.291 158.711C466.296 158.693 466.306 158.677 466.313 158.659C466.324 158.627 466.335 158.594 466.352 158.564C466.363 158.544 466.38 158.528 466.394 158.509C466.412 158.485 466.428 158.459 466.449 158.438C466.466 158.42 466.49 158.407 466.51 158.391C466.532 158.373 466.552 158.353 466.577 158.338L473.97 154.082C474.064 154.028 474.17 154 474.278 154C474.386 154 474.492 154.028 474.586 154.082L481.978 158.338H481.98C482.004 158.354 482.025 158.373 482.047 158.391C482.067 158.406 482.09 158.42 482.107 158.437C482.129 158.459 482.144 158.485 482.163 158.509C482.176 158.528 482.193 158.544 482.204 158.564C482.222 158.595 482.232 158.627 482.244 158.659C482.25 158.677 482.261 158.693 482.266 158.711C482.28 158.764 482.287 158.818 482.287 158.872V174.687L488.447 171.14V163.055C488.447 163.001 488.455 162.947 488.469 162.895C488.474 162.877 488.484 162.861 488.49 162.843C488.503 162.811 488.513 162.778 488.53 162.748C488.542 162.728 488.559 162.711 488.572 162.693C488.59 162.668 488.606 162.643 488.627 162.621C488.645 162.604 488.667 162.591 488.687 162.575C488.71 162.557 488.73 162.537 488.755 162.522L496.149 158.266C496.242 158.212 496.348 158.184 496.456 158.184C496.564 158.184 496.671 158.212 496.764 158.266L504.156 162.522C504.183 162.538 504.203 162.557 504.226 162.575C504.245 162.59 504.267 162.604 504.285 162.621C504.306 162.643 504.322 162.668 504.34 162.693C504.354 162.711 504.371 162.728 504.382 162.748C504.4 162.778 504.41 162.811 504.422 162.843C504.429 162.861 504.439 162.877 504.443 162.895ZM503.233 171.14V164.121L500.646 165.611L497.072 167.668V174.687L503.233 171.14H503.233ZM495.84 183.836V176.813L492.325 178.821L482.286 184.55V191.639L495.84 183.836ZM467.502 159.938V183.836L481.054 191.638V184.551L473.974 180.544L473.972 180.542L473.969 180.541C473.945 180.527 473.925 180.507 473.903 180.49C473.883 180.475 473.861 180.462 473.844 180.445L473.843 180.443C473.823 180.424 473.809 180.4 473.792 180.378C473.776 180.358 473.758 180.34 473.746 180.318L473.745 180.316C473.731 180.293 473.723 180.265 473.713 180.239C473.703 180.216 473.69 180.195 473.683 180.17C473.676 180.141 473.674 180.109 473.671 180.079C473.668 180.056 473.662 180.033 473.662 180.01V180.008V163.485L470.089 161.426L467.502 159.938ZM474.279 155.327L468.12 158.872L474.277 162.418L480.436 158.871L474.277 155.327H474.279ZM477.482 177.453L481.055 175.396V159.938L478.468 161.427L474.894 163.485V178.943L477.482 177.453ZM496.456 159.511L490.298 163.056L496.456 166.601L502.614 163.055L496.456 159.511ZM495.84 167.668L492.266 165.611L489.68 164.121V171.14L493.253 173.197L495.84 174.687V167.668ZM481.67 183.485L490.703 178.328L495.218 175.751L489.064 172.208L481.979 176.287L475.521 180.005L481.67 183.485Z" fill="#1A1A1A"/>
</g>
<path d="M360.397 224.904H363.337V244.524H375.035V247H360.397V224.904ZM391.333 246.938C390.879 247.206 390.25 247.34 389.445 247.34C388.764 247.34 388.218 247.155 387.805 246.783C387.413 246.391 387.217 245.762 387.217 244.896C386.495 245.762 385.649 246.391 384.679 246.783C383.73 247.155 382.699 247.34 381.585 247.34C380.863 247.34 380.172 247.258 379.511 247.093C378.872 246.928 378.315 246.67 377.84 246.319C377.366 245.968 376.984 245.515 376.695 244.958C376.427 244.38 376.293 243.689 376.293 242.884C376.293 241.976 376.448 241.234 376.757 240.656C377.067 240.078 377.469 239.614 377.964 239.263C378.48 238.892 379.058 238.614 379.697 238.428C380.357 238.242 381.028 238.088 381.709 237.964C382.431 237.819 383.112 237.716 383.751 237.654C384.411 237.572 384.989 237.469 385.484 237.345C385.979 237.2 386.371 237.004 386.66 236.757C386.949 236.489 387.093 236.107 387.093 235.612C387.093 235.034 386.98 234.57 386.753 234.219C386.547 233.869 386.268 233.6 385.917 233.415C385.587 233.229 385.206 233.105 384.772 233.043C384.36 232.981 383.947 232.95 383.534 232.95C382.42 232.95 381.492 233.167 380.749 233.6C380.007 234.013 379.604 234.807 379.542 235.983H376.912C376.953 234.993 377.16 234.157 377.531 233.477C377.902 232.796 378.397 232.249 379.016 231.836C379.635 231.403 380.337 231.094 381.121 230.908C381.925 230.722 382.781 230.63 383.689 230.63C384.411 230.63 385.123 230.681 385.824 230.784C386.547 230.887 387.196 231.104 387.774 231.434C388.352 231.744 388.816 232.187 389.167 232.765C389.517 233.342 389.693 234.095 389.693 235.024V243.256C389.693 243.874 389.724 244.328 389.786 244.617C389.868 244.906 390.116 245.05 390.528 245.05C390.755 245.05 391.023 244.999 391.333 244.896V246.938ZM387.062 238.737C386.732 238.985 386.299 239.171 385.763 239.294C385.226 239.398 384.659 239.49 384.061 239.573C383.483 239.635 382.895 239.717 382.297 239.821C381.698 239.903 381.162 240.047 380.687 240.254C380.213 240.46 379.821 240.759 379.511 241.151C379.223 241.523 379.078 242.038 379.078 242.698C379.078 243.132 379.161 243.503 379.326 243.813C379.511 244.101 379.738 244.339 380.007 244.524C380.295 244.71 380.626 244.844 380.997 244.927C381.368 245.009 381.76 245.05 382.173 245.05C383.039 245.05 383.782 244.937 384.401 244.71C385.02 244.462 385.525 244.163 385.917 243.813C386.309 243.441 386.598 243.049 386.784 242.637C386.969 242.203 387.062 241.801 387.062 241.43V238.737ZM393.688 231.001H396.164V234.374H396.226C396.865 233.074 397.649 232.115 398.578 231.496C399.506 230.877 400.682 230.588 402.106 230.63V233.415C401.053 233.415 400.156 233.559 399.413 233.848C398.67 234.137 398.072 234.56 397.618 235.117C397.164 235.674 396.834 236.355 396.628 237.159C396.422 237.943 396.319 238.851 396.319 239.882V247H393.688V231.001ZM418.26 246.938C417.806 247.206 417.176 247.34 416.372 247.34C415.691 247.34 415.144 247.155 414.732 246.783C414.34 246.391 414.144 245.762 414.144 244.896C413.422 245.762 412.576 246.391 411.606 246.783C410.657 247.155 409.626 247.34 408.512 247.34C407.79 247.34 407.098 247.258 406.438 247.093C405.799 246.928 405.242 246.67 404.767 246.319C404.293 245.968 403.911 245.515 403.622 244.958C403.354 244.38 403.22 243.689 403.22 242.884C403.22 241.976 403.375 241.234 403.684 240.656C403.993 240.078 404.396 239.614 404.891 239.263C405.407 238.892 405.984 238.614 406.624 238.428C407.284 238.242 407.955 238.088 408.635 237.964C409.357 237.819 410.038 237.716 410.678 237.654C411.338 237.572 411.916 237.469 412.411 237.345C412.906 237.2 413.298 237.004 413.587 236.757C413.876 236.489 414.02 236.107 414.02 235.612C414.02 235.034 413.907 234.57 413.68 234.219C413.473 233.869 413.195 233.6 412.844 233.415C412.514 233.229 412.132 233.105 411.699 233.043C411.286 232.981 410.874 232.95 410.461 232.95C409.347 232.95 408.419 233.167 407.676 233.6C406.933 234.013 406.531 234.807 406.469 235.983H403.839C403.88 234.993 404.086 234.157 404.458 233.477C404.829 232.796 405.324 232.249 405.943 231.836C406.562 231.403 407.263 231.094 408.047 230.908C408.852 230.722 409.708 230.63 410.616 230.63C411.338 230.63 412.05 230.681 412.751 230.784C413.473 230.887 414.123 231.104 414.701 231.434C415.278 231.744 415.743 232.187 416.093 232.765C416.444 233.342 416.619 234.095 416.619 235.024V243.256C416.619 243.874 416.65 244.328 416.712 244.617C416.795 244.906 417.042 245.05 417.455 245.05C417.682 245.05 417.95 244.999 418.26 244.896V246.938ZM413.989 238.737C413.659 238.985 413.226 239.171 412.689 239.294C412.153 239.398 411.586 239.49 410.987 239.573C410.41 239.635 409.822 239.717 409.223 239.821C408.625 239.903 408.089 240.047 407.614 240.254C407.14 240.46 406.748 240.759 406.438 241.151C406.149 241.523 406.005 242.038 406.005 242.698C406.005 243.132 406.087 243.503 406.253 243.813C406.438 244.101 406.665 244.339 406.933 244.524C407.222 244.71 407.552 244.844 407.924 244.927C408.295 245.009 408.687 245.05 409.1 245.05C409.966 245.05 410.709 244.937 411.328 244.71C411.947 244.462 412.452 244.163 412.844 243.813C413.236 243.441 413.525 243.049 413.711 242.637C413.896 242.203 413.989 241.801 413.989 241.43V238.737ZM427.918 247H425.102L419.16 231.001H422.1L426.587 244.339H426.649L431.013 231.001H433.767L427.918 247ZM447.29 237.469C447.249 236.85 447.105 236.262 446.857 235.705C446.63 235.148 446.31 234.673 445.898 234.281C445.506 233.869 445.031 233.549 444.474 233.322C443.938 233.074 443.34 232.95 442.679 232.95C441.999 232.95 441.38 233.074 440.823 233.322C440.286 233.549 439.822 233.869 439.43 234.281C439.038 234.694 438.729 235.179 438.502 235.736C438.275 236.272 438.141 236.85 438.099 237.469H447.29ZM449.828 241.925C449.477 243.72 448.704 245.071 447.507 245.979C446.31 246.887 444.804 247.34 442.989 247.34C441.71 247.34 440.596 247.134 439.647 246.721C438.718 246.309 437.934 245.731 437.295 244.989C436.655 244.246 436.17 243.359 435.84 242.327C435.531 241.296 435.356 240.171 435.314 238.954C435.314 237.737 435.5 236.623 435.871 235.612C436.243 234.601 436.758 233.724 437.419 232.981C438.099 232.239 438.894 231.661 439.801 231.248C440.73 230.836 441.741 230.63 442.834 230.63C444.258 230.63 445.434 230.929 446.362 231.527C447.311 232.105 448.064 232.847 448.621 233.755C449.199 234.663 449.591 235.653 449.797 236.726C450.024 237.799 450.117 238.82 450.076 239.79H438.099C438.079 240.491 438.161 241.162 438.347 241.801C438.533 242.42 438.832 242.977 439.244 243.472C439.657 243.947 440.183 244.328 440.823 244.617C441.462 244.906 442.215 245.05 443.082 245.05C444.196 245.05 445.104 244.793 445.805 244.277C446.527 243.761 447.002 242.977 447.229 241.925H449.828ZM452.957 224.904H455.587V247H452.957V224.904ZM468.708 224.904H479.106C481.211 224.904 482.851 225.42 484.027 226.452C485.223 227.483 485.822 228.897 485.822 230.691C485.822 232.032 485.512 233.208 484.893 234.219C484.295 235.23 483.325 235.921 481.984 236.293V236.355C482.624 236.478 483.14 236.685 483.532 236.973C483.944 237.262 484.264 237.613 484.491 238.026C484.739 238.418 484.914 238.861 485.017 239.356C485.141 239.851 485.234 240.367 485.296 240.904C485.337 241.44 485.368 241.987 485.388 242.544C485.409 243.101 485.461 243.648 485.543 244.184C485.626 244.72 485.739 245.236 485.884 245.731C486.049 246.206 486.286 246.629 486.595 247H483.315C483.109 246.773 482.964 246.464 482.882 246.072C482.82 245.68 482.779 245.246 482.758 244.772C482.737 244.277 482.717 243.751 482.696 243.194C482.675 242.637 482.614 242.09 482.51 241.553C482.428 241.017 482.325 240.512 482.201 240.037C482.077 239.542 481.881 239.119 481.613 238.768C481.345 238.397 480.994 238.108 480.561 237.902C480.128 237.675 479.55 237.561 478.828 237.561H471.648V247H468.708V224.904ZM477.776 235.086C478.457 235.086 479.106 235.034 479.725 234.931C480.344 234.828 480.881 234.632 481.334 234.343C481.809 234.034 482.18 233.631 482.449 233.136C482.737 232.62 482.882 231.96 482.882 231.156C482.882 230.042 482.572 229.134 481.953 228.432C481.334 227.731 480.334 227.38 478.952 227.38H471.648V235.086H477.776ZM500.57 237.469C500.528 236.85 500.384 236.262 500.136 235.705C499.909 235.148 499.59 234.673 499.177 234.281C498.785 233.869 498.311 233.549 497.754 233.322C497.217 233.074 496.619 232.95 495.959 232.95C495.278 232.95 494.659 233.074 494.102 233.322C493.566 233.549 493.101 233.869 492.709 234.281C492.317 234.694 492.008 235.179 491.781 235.736C491.554 236.272 491.42 236.85 491.379 237.469H500.57ZM503.107 241.925C502.757 243.72 501.983 245.071 500.786 245.979C499.59 246.887 498.084 247.34 496.268 247.34C494.989 247.34 493.875 247.134 492.926 246.721C491.998 246.309 491.214 245.731 490.574 244.989C489.935 244.246 489.45 243.359 489.12 242.327C488.81 241.296 488.635 240.171 488.594 238.954C488.594 237.737 488.779 236.623 489.151 235.612C489.522 234.601 490.038 233.724 490.698 232.981C491.379 232.239 492.173 231.661 493.081 231.248C494.009 230.836 495.02 230.63 496.113 230.63C497.537 230.63 498.713 230.929 499.641 231.527C500.59 232.105 501.343 232.847 501.9 233.755C502.478 234.663 502.87 235.653 503.076 236.726C503.303 237.799 503.396 238.82 503.355 239.79H491.379C491.358 240.491 491.441 241.162 491.626 241.801C491.812 242.42 492.111 242.977 492.524 243.472C492.936 243.947 493.462 244.328 494.102 244.617C494.741 244.906 495.494 245.05 496.361 245.05C497.475 245.05 498.383 244.793 499.084 244.277C499.806 243.761 500.281 242.977 500.508 241.925H503.107ZM507.691 241.956C507.711 242.533 507.845 243.029 508.093 243.441C508.341 243.833 508.66 244.153 509.052 244.401C509.465 244.627 509.919 244.793 510.414 244.896C510.93 244.999 511.456 245.05 511.992 245.05C512.405 245.05 512.838 245.019 513.292 244.958C513.746 244.896 514.158 244.782 514.53 244.617C514.922 244.452 515.241 244.215 515.489 243.905C515.737 243.575 515.86 243.163 515.86 242.668C515.86 241.987 515.603 241.471 515.087 241.12C514.571 240.77 513.921 240.491 513.137 240.285C512.374 240.058 511.538 239.862 510.631 239.697C509.723 239.511 508.877 239.263 508.093 238.954C507.33 238.624 506.69 238.17 506.174 237.592C505.659 237.015 505.401 236.21 505.401 235.179C505.401 234.374 505.576 233.683 505.927 233.105C506.298 232.528 506.762 232.063 507.319 231.713C507.897 231.341 508.536 231.073 509.238 230.908C509.96 230.722 510.672 230.63 511.373 230.63C512.281 230.63 513.117 230.712 513.88 230.877C514.643 231.022 515.314 231.29 515.891 231.682C516.49 232.053 516.964 232.569 517.315 233.229C517.666 233.869 517.872 234.673 517.934 235.643H515.303C515.262 235.127 515.128 234.704 514.901 234.374C514.674 234.023 514.385 233.745 514.035 233.538C513.684 233.332 513.292 233.188 512.859 233.105C512.446 233.002 512.023 232.95 511.59 232.95C511.198 232.95 510.796 232.981 510.383 233.043C509.991 233.105 509.63 233.219 509.3 233.384C508.97 233.528 508.702 233.734 508.495 234.003C508.289 234.25 508.186 234.58 508.186 234.993C508.186 235.447 508.341 235.828 508.65 236.138C508.98 236.427 509.393 236.674 509.888 236.881C510.383 237.066 510.94 237.231 511.559 237.376C512.178 237.5 512.797 237.634 513.416 237.778C514.076 237.922 514.715 238.098 515.334 238.304C515.974 238.51 516.531 238.789 517.005 239.14C517.501 239.47 517.893 239.893 518.181 240.408C518.491 240.924 518.646 241.564 518.646 242.327C518.646 243.297 518.439 244.101 518.027 244.741C517.635 245.38 517.109 245.896 516.448 246.288C515.809 246.68 515.076 246.948 514.251 247.093C513.447 247.258 512.642 247.34 511.837 247.34C510.95 247.34 510.104 247.248 509.3 247.062C508.495 246.876 507.783 246.577 507.165 246.164C506.546 245.731 506.05 245.174 505.679 244.493C505.308 243.792 505.101 242.946 505.06 241.956H507.691ZM523.473 239.016C523.473 239.986 523.597 240.852 523.844 241.615C524.113 242.358 524.474 242.987 524.928 243.503C525.381 243.998 525.908 244.38 526.506 244.648C527.125 244.916 527.775 245.05 528.455 245.05C529.136 245.05 529.776 244.916 530.374 244.648C530.993 244.38 531.529 243.998 531.983 243.503C532.437 242.987 532.788 242.358 533.035 241.615C533.304 240.852 533.438 239.986 533.438 239.016C533.438 238.046 533.304 237.19 533.035 236.447C532.788 235.684 532.437 235.044 531.983 234.529C531.529 234.013 530.993 233.621 530.374 233.353C529.776 233.085 529.136 232.95 528.455 232.95C527.775 232.95 527.125 233.085 526.506 233.353C525.908 233.621 525.381 234.013 524.928 234.529C524.474 235.044 524.113 235.684 523.844 236.447C523.597 237.19 523.473 238.046 523.473 239.016ZM520.688 239.016C520.688 237.84 520.853 236.747 521.183 235.736C521.513 234.704 522.008 233.817 522.669 233.074C523.329 232.311 524.144 231.713 525.113 231.279C526.083 230.846 527.197 230.63 528.455 230.63C529.735 230.63 530.849 230.846 531.798 231.279C532.767 231.713 533.582 232.311 534.242 233.074C534.903 233.817 535.398 234.704 535.728 235.736C536.058 236.747 536.223 237.84 536.223 239.016C536.223 240.192 536.058 241.285 535.728 242.296C535.398 243.307 534.903 244.194 534.242 244.958C533.582 245.7 532.767 246.288 531.798 246.721C530.849 247.134 529.735 247.34 528.455 247.34C527.197 247.34 526.083 247.134 525.113 246.721C524.144 246.288 523.329 245.7 522.669 244.958C522.008 244.194 521.513 243.307 521.183 242.296C520.853 241.285 520.688 240.192 520.688 239.016ZM552.569 247H550.094V244.462H550.032C549.475 245.453 548.763 246.185 547.896 246.66C547.03 247.113 546.009 247.34 544.833 247.34C543.781 247.34 542.904 247.206 542.202 246.938C541.501 246.649 540.933 246.247 540.5 245.731C540.067 245.215 539.758 244.607 539.572 243.905C539.407 243.183 539.324 242.389 539.324 241.523V231.001H541.955V241.832C541.955 242.822 542.244 243.606 542.821 244.184C543.399 244.762 544.193 245.05 545.204 245.05C546.009 245.05 546.7 244.927 547.277 244.679C547.876 244.431 548.371 244.081 548.763 243.627C549.155 243.173 549.444 242.647 549.629 242.049C549.836 241.43 549.939 240.759 549.939 240.037V231.001H552.569V247ZM556.427 231.001H558.903V234.374H558.965C559.604 233.074 560.388 232.115 561.317 231.496C562.245 230.877 563.421 230.588 564.844 230.63V233.415C563.792 233.415 562.895 233.559 562.152 233.848C561.409 234.137 560.811 234.56 560.357 235.117C559.903 235.674 559.573 236.355 559.367 237.159C559.161 237.943 559.057 238.851 559.057 239.882V247H556.427V231.001ZM577.143 236.138C576.937 235.127 576.504 234.343 575.844 233.786C575.183 233.229 574.296 232.95 573.182 232.95C572.233 232.95 571.439 233.126 570.799 233.477C570.16 233.827 569.644 234.291 569.252 234.869C568.881 235.447 568.612 236.117 568.447 236.881C568.282 237.623 568.2 238.397 568.2 239.202C568.2 239.944 568.282 240.666 568.447 241.368C568.633 242.069 568.912 242.698 569.283 243.256C569.654 243.792 570.139 244.225 570.737 244.555C571.336 244.885 572.048 245.05 572.873 245.05C574.172 245.05 575.183 244.71 575.905 244.029C576.648 243.348 577.102 242.389 577.267 241.151H579.959C579.671 243.132 578.928 244.658 577.731 245.731C576.555 246.804 574.946 247.34 572.904 247.34C571.686 247.34 570.603 247.144 569.654 246.752C568.726 246.36 567.942 245.803 567.302 245.081C566.684 244.359 566.209 243.503 565.879 242.513C565.569 241.502 565.415 240.398 565.415 239.202C565.415 238.005 565.569 236.891 565.879 235.859C566.188 234.807 566.653 233.899 567.271 233.136C567.911 232.352 568.705 231.744 569.654 231.31C570.603 230.856 571.707 230.63 572.966 230.63C573.873 230.63 574.719 230.743 575.503 230.97C576.308 231.176 577.009 231.506 577.607 231.96C578.226 232.414 578.732 232.992 579.124 233.693C579.516 234.374 579.763 235.189 579.867 236.138H577.143ZM594.012 237.469C593.971 236.85 593.827 236.262 593.579 235.705C593.352 235.148 593.032 234.673 592.62 234.281C592.228 233.869 591.753 233.549 591.196 233.322C590.66 233.074 590.062 232.95 589.401 232.95C588.721 232.95 588.102 233.074 587.545 233.322C587.008 233.549 586.544 233.869 586.152 234.281C585.76 234.694 585.451 235.179 585.224 235.736C584.997 236.272 584.863 236.85 584.821 237.469H594.012ZM596.55 241.925C596.199 243.72 595.426 245.071 594.229 245.979C593.032 246.887 591.526 247.34 589.711 247.34C588.432 247.34 587.318 247.134 586.369 246.721C585.44 246.309 584.656 245.731 584.017 244.989C583.377 244.246 582.892 243.359 582.562 242.327C582.253 241.296 582.077 240.171 582.036 238.954C582.036 237.737 582.222 236.623 582.593 235.612C582.965 234.601 583.48 233.724 584.14 232.981C584.821 232.239 585.616 231.661 586.523 231.248C587.452 230.836 588.463 230.63 589.556 230.63C590.98 230.63 592.156 230.929 593.084 231.527C594.033 232.105 594.786 232.847 595.343 233.755C595.921 234.663 596.313 235.653 596.519 236.726C596.746 237.799 596.839 238.82 596.797 239.79H584.821C584.801 240.491 584.883 241.162 585.069 241.801C585.255 242.42 585.554 242.977 585.966 243.472C586.379 243.947 586.905 244.328 587.545 244.617C588.184 244.906 588.937 245.05 589.804 245.05C590.918 245.05 591.825 244.793 592.527 244.277C593.249 243.761 593.723 242.977 593.95 241.925H596.55ZM601.133 241.956C601.154 242.533 601.288 243.029 601.536 243.441C601.783 243.833 602.103 244.153 602.495 244.401C602.908 244.627 603.361 244.793 603.857 244.896C604.372 244.999 604.898 245.05 605.435 245.05C605.847 245.05 606.281 245.019 606.735 244.958C607.188 244.896 607.601 244.782 607.972 244.617C608.364 244.452 608.684 244.215 608.932 243.905C609.179 243.575 609.303 243.163 609.303 242.668C609.303 241.987 609.045 241.471 608.529 241.12C608.014 240.77 607.364 240.491 606.58 240.285C605.816 240.058 604.981 239.862 604.073 239.697C603.165 239.511 602.32 239.263 601.536 238.954C600.772 238.624 600.133 238.17 599.617 237.592C599.101 237.015 598.843 236.21 598.843 235.179C598.843 234.374 599.019 233.683 599.369 233.105C599.741 232.528 600.205 232.063 600.762 231.713C601.34 231.341 601.979 231.073 602.681 230.908C603.403 230.722 604.114 230.63 604.816 230.63C605.724 230.63 606.559 230.712 607.322 230.877C608.086 231.022 608.756 231.29 609.334 231.682C609.932 232.053 610.407 232.569 610.758 233.229C611.108 233.869 611.315 234.673 611.376 235.643H608.746C608.705 235.127 608.571 234.704 608.344 234.374C608.117 234.023 607.828 233.745 607.477 233.538C607.127 233.332 606.735 233.188 606.301 233.105C605.889 233.002 605.466 232.95 605.032 232.95C604.641 232.95 604.238 232.981 603.826 233.043C603.434 233.105 603.073 233.219 602.742 233.384C602.412 233.528 602.144 233.734 601.938 234.003C601.732 234.25 601.628 234.58 601.628 234.993C601.628 235.447 601.783 235.828 602.093 236.138C602.423 236.427 602.835 236.674 603.33 236.881C603.826 237.066 604.383 237.231 605.002 237.376C605.62 237.5 606.239 237.634 606.858 237.778C607.518 237.922 608.158 238.098 608.777 238.304C609.417 238.51 609.974 238.789 610.448 239.14C610.943 239.47 611.335 239.893 611.624 240.408C611.933 240.924 612.088 241.564 612.088 242.327C612.088 243.297 611.882 244.101 611.469 244.741C611.077 245.38 610.551 245.896 609.891 246.288C609.251 246.68 608.519 246.948 607.694 247.093C606.889 247.258 606.085 247.34 605.28 247.34C604.393 247.34 603.547 247.248 602.742 247.062C601.938 246.876 601.226 246.577 600.607 246.164C599.988 245.731 599.493 245.174 599.122 244.493C598.75 243.792 598.544 242.946 598.503 241.956H601.133Z" fill="#1A1A1A"/>
<defs>
<clipPath id="clip0_1745_12188">
<rect width="72.2368" height="15.7435" fill="white" transform="translate(877 21)"/>
</clipPath>
<clipPath id="clip1_1745_12188">
<rect width="38.4615" height="40" fill="white" transform="translate(466.27 154)"/>
</clipPath>
</defs>
</svg>
